<svg width="24.000000" height="24.000000" viewBox="0 0 24 24" fill="none" xmlns="http://www.w3.org/2000/svg" xmlns:xlink="http://www.w3.org/1999/xlink">
	<desc>
			Created with Pixso.
	</desc>
	<defs>
		<clipPath id="clip135_489">
			<rect id="storefront" rx="-0.500000" width="23.000000" height="23.000000" transform="translate(0.500000 0.500000)" fill="white" fill-opacity="0"/>
		</clipPath>
	</defs>
	<g clip-path="url(#clip135_489)">
		<path id="Vector" d="M21.89 8.88L20.85 4.52C20.63 3.62 19.85 3 18.93 3L5.05 3C4.14 3 3.36 3.62 3.14 4.52L2.1 8.88C1.86 9.9 2.08 10.95 2.71 11.77C2.8 11.87 2.9 11.96 3 12.06L3 19C3 20.1 3.89 21 5 21L19 21C20.1 21 21 20.1 21 19L21 12.06C21.09 11.97 21.2 11.87 21.28 11.78C21.91 10.96 22.14 9.9 21.89 8.88ZM18.9 4.98L19.95 9.36C20.06 9.78 19.96 10.2 19.7 10.53C19.57 10.71 19.27 11 18.77 11C18.15 11 17.63 10.51 17.56 9.86L16.98 5L18.9 4.98ZM13 5L14.96 5L15.5 9.52C15.55 9.9 15.42 10.3 15.16 10.59C14.95 10.85 14.63 11 14.22 11C13.55 11 13 10.4 13 9.68L13 5ZM8.48 9.52L9.04 5L11 5L11 9.68C11 10.4 10.45 11 9.7 11C9.37 11 9.06 10.85 8.82 10.59C8.57 10.3 8.44 9.9 8.48 9.52ZM4.04 9.36L5.05 5L7.02 5L6.43 9.86C6.36 10.51 5.84 11 5.22 11C4.73 11 4.42 10.71 4.3 10.53C4.03 10.21 3.93 9.78 4.04 9.36ZM5 19L5 12.97C5.08 12.98 5.14 13 5.22 13C6.1 13 6.88 12.63 7.46 12.05C8.07 12.64 8.87 13 9.78 13C10.64 13 11.42 12.63 12.01 12.07C12.6 12.63 13.39 13 14.3 13C15.13 13 15.93 12.64 16.54 12.05C17.12 12.63 17.9 13 18.78 13C18.86 13 18.92 12.98 19.01 12.97L19.01 19L5 19Z" fill="#F2F2F2" fill-opacity="1.000000" fill-rule="nonzero"/>
	</g>
</svg>
