<svg width="22.000000" height="18.980469" viewBox="0 0 22 18.9805" fill="none" xmlns="http://www.w3.org/2000/svg" xmlns:xlink="http://www.w3.org/1999/xlink">
	<desc>
			Created with Pixso.
	</desc>
	<defs/>
	<path id="Vector" d="M21 6.98L16.2 6.98L11.83 0.41C11.63 0.14 11.32 0 11 0C10.67 0 10.36 0.14 10.16 0.42L5.79 6.98L1 6.98C0.44 6.98 0 7.42 0 7.98C0 8.07 0.01 8.16 0.04 8.25L2.58 17.51C2.81 18.35 3.58 18.98 4.5 18.98L17.5 18.98C18.41 18.98 19.18 18.35 19.42 17.51L21.97 8.25L22 7.98C22 7.42 21.55 6.98 21 6.98ZM11 2.77L13.8 6.98L8.19 6.98L11 2.77ZM17.5 16.98L4.51 16.99L2.31 8.98L19.7 8.98L17.5 16.98ZM11 10.98C9.89 10.98 9 11.88 9 12.98C9 14.08 9.89 14.98 11 14.98C12.1 14.98 13 14.08 13 12.98C13 11.88 12.1 10.98 11 10.98Z" fill="#828282" fill-opacity="1.000000" fill-rule="nonzero"/>
</svg>
