<svg width="33.000000" height="33.000000" viewBox="0 0 33 33" fill="none" xmlns="http://www.w3.org/2000/svg" xmlns:xlink="http://www.w3.org/1999/xlink">
	<desc>
			Created with Pixso.
	</desc>
	<defs>
		<clipPath id="clip139_6373">
			<rect id="akar-icons:instagram-fill" width="33.000000" height="33.000000" fill="white" fill-opacity="0"/>
		</clipPath>
	</defs>
	<rect id="akar-icons:instagram-fill" width="33.000000" height="33.000000" fill="#FFFFFF" fill-opacity="0"/>
	<g clip-path="url(#clip139_6373)">
		<path id="Vector" d="M10.26 1.46C11.87 1.39 12.39 1.37 16.5 1.37C20.6 1.37 21.12 1.39 22.73 1.46C24.34 1.53 25.44 1.79 26.4 2.16C27.41 2.54 28.33 3.14 29.08 3.91C29.85 4.66 30.45 5.58 30.83 6.59C31.2 7.55 31.46 8.65 31.53 10.26C31.6 11.87 31.62 12.39 31.62 16.5C31.62 20.6 31.6 21.12 31.53 22.73C31.46 24.34 31.2 25.44 30.83 26.4C30.45 27.41 29.85 28.33 29.08 29.08C28.33 29.85 27.41 30.45 26.4 30.83C25.44 31.2 24.34 31.46 22.73 31.53C21.12 31.6 20.6 31.62 16.5 31.62C12.39 31.62 11.87 31.6 10.26 31.53C8.65 31.46 7.55 31.2 6.59 30.83C5.58 30.45 4.66 29.85 3.91 29.08C3.14 28.33 2.54 27.41 2.16 26.4C1.79 25.44 1.54 24.34 1.46 22.73C1.39 21.12 1.37 20.6 1.37 16.5C1.37 12.39 1.39 11.87 1.46 10.26C1.53 8.65 1.79 7.55 2.16 6.59C2.54 5.58 3.14 4.66 3.91 3.91C4.66 3.14 5.58 2.54 6.59 2.16C7.55 1.79 8.65 1.53 10.26 1.46L10.26 1.46ZM22.61 4.18C21.01 4.11 20.53 4.09 16.5 4.09C12.46 4.09 11.98 4.11 10.38 4.18C8.91 4.25 8.11 4.5 7.57 4.7C6.87 4.98 6.36 5.31 5.83 5.83C5.33 6.32 4.95 6.92 4.7 7.57C4.5 8.11 4.25 8.91 4.18 10.38C4.11 11.98 4.1 12.46 4.1 16.5C4.1 20.53 4.11 21.01 4.18 22.61C4.25 24.08 4.5 24.88 4.7 25.42C4.95 26.07 5.33 26.67 5.83 27.16C6.32 27.66 6.92 28.04 7.57 28.29C8.11 28.49 8.91 28.74 10.38 28.81C11.98 28.88 12.46 28.9 16.5 28.9C20.53 28.9 21.01 28.88 22.61 28.81C24.08 28.74 24.88 28.49 25.42 28.29C26.12 28.01 26.63 27.68 27.16 27.16C27.66 26.67 28.04 26.07 28.29 25.42C28.49 24.88 28.74 24.08 28.81 22.61C28.88 21.01 28.89 20.53 28.89 16.5C28.89 12.46 28.88 11.98 28.81 10.38C28.74 8.91 28.49 8.11 28.29 7.57C28.01 6.87 27.68 6.36 27.16 5.83C26.67 5.33 26.07 4.95 25.42 4.7C24.88 4.5 24.08 4.25 22.61 4.18ZM14.56 21.16C15.64 21.61 16.84 21.67 17.96 21.33C19.08 20.99 20.05 20.27 20.7 19.3C21.35 18.33 21.64 17.16 21.52 16C21.41 14.84 20.89 13.75 20.06 12.93C19.54 12.4 18.9 12 18.2 11.75C17.49 11.49 16.74 11.4 16 11.47C15.26 11.55 14.54 11.78 13.9 12.17C13.26 12.55 12.71 13.07 12.3 13.69C11.89 14.31 11.61 15.02 11.5 15.75C11.39 16.49 11.45 17.25 11.67 17.96C11.88 18.67 12.26 19.33 12.76 19.88C13.26 20.44 13.87 20.87 14.56 21.16ZM11 11C11.72 10.28 12.58 9.7 13.52 9.31C14.46 8.92 15.47 8.72 16.5 8.72C17.52 8.72 18.53 8.92 19.47 9.31C20.41 9.7 21.27 10.28 21.99 11C22.71 11.72 23.29 12.58 23.68 13.52C24.07 14.46 24.27 15.47 24.27 16.5C24.27 17.52 24.07 18.53 23.68 19.47C23.29 20.41 22.71 21.27 21.99 21.99C20.53 23.45 18.56 24.27 16.5 24.27C14.43 24.27 12.46 23.45 11 21.99C9.54 20.53 8.72 18.56 8.72 16.5C8.72 14.43 9.54 12.46 11 11ZM25.99 9.88C26.17 9.71 26.32 9.51 26.41 9.28C26.51 9.06 26.57 8.81 26.57 8.57C26.57 8.32 26.53 8.08 26.44 7.85C26.34 7.62 26.21 7.41 26.03 7.24C25.86 7.07 25.65 6.93 25.42 6.84C25.2 6.75 24.95 6.7 24.71 6.7C24.46 6.71 24.22 6.76 23.99 6.86C23.77 6.96 23.56 7.1 23.39 7.28C23.07 7.63 22.89 8.09 22.89 8.57C22.9 9.05 23.09 9.5 23.43 9.84C23.77 10.18 24.23 10.37 24.71 10.38C25.18 10.39 25.65 10.21 25.99 9.88Z" fill="#FFFFFF" fill-opacity="1.000000" fill-rule="evenodd"/>
	</g>
</svg>
