<svg width="32.000000" height="24.828125" viewBox="0 0 32 24.8281" fill="none" xmlns="http://www.w3.org/2000/svg" xmlns:xlink="http://www.w3.org/1999/xlink">
	<desc>
			Created with Pixso.
	</desc>
	<defs/>
	<path id="Vector" d="M32 2.94C30.82 3.44 29.55 3.77 28.23 3.93C29.6 3.14 30.62 1.91 31.11 0.46C29.82 1.19 28.41 1.7 26.94 1.98C25.95 0.97 24.64 0.3 23.22 0.08C21.79 -0.15 20.32 0.08 19.05 0.74C17.77 1.39 16.76 2.42 16.16 3.68C15.57 4.94 15.42 6.35 15.76 7.69C13.14 7.57 10.59 6.92 8.26 5.79C5.93 4.67 3.87 3.08 2.22 1.15C1.66 2.08 1.34 3.15 1.34 4.3C1.33 5.33 1.6 6.34 2.11 7.25C2.62 8.16 3.36 8.94 4.26 9.51C3.21 9.48 2.19 9.21 1.28 8.73L1.28 8.81C1.28 10.26 1.81 11.66 2.77 12.78C3.73 13.9 5.06 14.67 6.55 14.95C5.58 15.2 4.57 15.24 3.58 15.06C4 16.31 4.82 17.4 5.92 18.17C7.02 18.96 8.35 19.39 9.72 19.41C7.39 21.16 4.52 22.1 1.56 22.09C1.04 22.09 0.52 22.07 0 22.01C3 23.85 6.49 24.83 10.06 24.82C22.14 24.82 28.74 15.28 28.74 7C28.74 6.73 28.73 6.45 28.72 6.19C30 5.3 31.11 4.2 31.99 2.94L32 2.94Z" fill="#FB9300" fill-opacity="1.000000" fill-rule="nonzero"/>
</svg>
